HIERARCHY
ROOT Hips
{
 OFFSET 0.000000 0.000000 0.000000
 CHANNELS 6 Xposition Yposition Zposition Yrotation Xrotation Zrotation
 JOINT Chest
 {
  OFFSET 0.000000 9.581000 -0.001100
  CHANNELS 3 Yrotation Xrotation Zrotation
  JOINT Chest2
  {
   OFFSET 0.000000 9.561100 0.002200
   CHANNELS 3 Yrotation Xrotation Zrotation
   JOINT Chest3
   {
    OFFSET 0.000000 9.521100 0.000000
    CHANNELS 3 Yrotation Xrotation Zrotation
    JOINT Chest4
    {
     OFFSET 0.000000 9.511400 0.000000
     CHANNELS 3 Yrotation Xrotation Zrotation
     JOINT Neck
     {
      OFFSET 0.000000 14.375100 0.000000
      CHANNELS 3 Yrotation Xrotation Zrotation
      JOINT Head
      {
       OFFSET 0.000000 8.901200 0.004600
       CHANNELS 3 Yrotation Xrotation Zrotation
       End Site
       {
        OFFSET 0.000000 16.962200 0.002400
       }
      }
     }
     JOINT RightCollar
     {
      OFFSET -2.920100 9.518800 0.000000
      CHANNELS 3 Yrotation Xrotation Zrotation
      JOINT RightShoulder
      {
       OFFSET -13.664500 0.000000 0.000000
       CHANNELS 3 Yrotation Xrotation Zrotation
       JOINT RightElbow
       {
        OFFSET 0.000000 -29.999200 0.000000
        CHANNELS 3 Yrotation Xrotation Zrotation
        JOINT RightWrist
        {
         OFFSET 0.000000 -24.253600 0.000000
         CHANNELS 3 Yrotation Xrotation Zrotation
         End Site
         {
          OFFSET 0.000000 -17.918900 0.000000
         }
        }
       }
      }
     }
     JOINT LeftCollar
     {
      OFFSET 2.920100 9.518800 0.000000
      CHANNELS 3 Yrotation Xrotation Zrotation
      JOINT LeftShoulder
      {
       OFFSET 13.664500 0.000000 0.000000
       CHANNELS 3 Yrotation Xrotation Zrotation
       JOINT LeftElbow
       {
        OFFSET 0.000000 -29.999200 0.000000
        CHANNELS 3 Yrotation Xrotation Zrotation
        JOINT LeftWrist
        {
         OFFSET 0.000000 -24.253600 0.000000
         CHANNELS 3 Yrotation Xrotation Zrotation
         End Site
         {
          OFFSET 0.000000 -17.918900 0.000000
         }
        }
       }
      }
     }
    }
   }
  }
 }
 JOINT RightHip
 {
  OFFSET -7.797300 0.005300 0.000500
  CHANNELS 3 Yrotation Xrotation Zrotation
  JOINT RightKnee
  {
   OFFSET 0.000000 -40.663400 -0.000500
   CHANNELS 3 Yrotation Xrotation Zrotation
   JOINT RightAnkle
   {
    OFFSET 0.000000 -39.523700 -0.000900
    CHANNELS 3 Yrotation Xrotation Zrotation
    JOINT RightToe
    {
     OFFSET 0.000000 -6.418000 14.485300
     CHANNELS 3 Yrotation Xrotation Zrotation
     End Site
     {
      OFFSET 0.000000 -1.465200 6.326400
     }
    }
   }
  }
 }
 JOINT LeftHip
 {
  OFFSET 7.797300 0.005300 0.000500
  CHANNELS 3 Yrotation Xrotation Zrotation
  JOINT LeftKnee
  {
   OFFSET 0.000000 -40.663400 -0.000500
   CHANNELS 3 Yrotation Xrotation Zrotation
   JOINT LeftAnkle
   {
    OFFSET 0.000000 -39.523700 -0.000900
    CHANNELS 3 Yrotation Xrotation Zrotation
    JOINT LeftToe
    {
     OFFSET 0.000000 -6.418000 14.485300
     CHANNELS 3 Yrotation Xrotation Zrotation
     End Site
     {
      OFFSET 0.000000 -1.465200 6.326400
     }
    }
   }
  }
 }
}
MOTION
Frames: 15
Frame Time: 0.008333
-15.001905 126.903802 12.004746 -173.597027 -47.318799 -4.231298 1.278322 26.378287 2.444631 0.132051 4.435243 0.359068 0.235430 7.025004 0.574948 0.940686 21.647677 1.932352 -0.573982 15.657003 -1.270471 -0.313365 -9.298176 -1.189688 0.649861 2.103366 1.344371 -0.662766 -7.671791 -10.520361 -103.627853 -62.322791 149.677502 8.696306 10.496208 3.500886 -11.023328 -2.851602 -1.372474 -8.491880 -18.383949 14.771989 58.996711 -61.080394 -104.768099 -4.471076 0.270580 2.592448 -1.202693 -25.682932 -1.381185 -10.045442 73.993771 -13.530716 10.747555 -7.294040 9.339146 0.003248 0.000196 0.001439 4.897975 -5.433024 3.753040 144.036953 69.633089 161.186153 -2.710888 -14.987558 -12.530620 0.000437 -0.001204 0.000194
-15.000699 126.902685 12.005387 -173.625146 -47.304358 -4.214182 1.287203 26.379630 2.443588 0.132062 4.438351 0.358762 0.233334 7.025673 0.576234 0.941423 21.657581 1.927752 -0.567552 15.632952 -1.281822 -0.303990 -9.323437 -1.202864 0.650130 2.087361 1.331227 -0.634215 -7.574433 -10.534592 -103.673040 -62.308678 149.726075 8.708598 10.633805 3.543578 -11.000897 -2.873791 -1.353759 -8.520219 -18.247984 14.727245 58.890651 -61.002629 -104.696778 -4.432401 0.220133 2.700369 -1.190312 -25.699414 -1.377218 -10.042191 73.994744 -13.528759 10.757754 -7.313492 9.343043 0.003962 0.001443 0.001756 4.907345 -5.445434 3.748275 144.035928 69.631777 161.183431 -2.705110 -14.986909 -12.537350 0.000502 -0.001318 0.000222
-14.999838 126.902535 12.005185 -173.640984 -47.297626 -4.203542 1.291610 26.385175 2.440859 0.130757 4.445985 0.358299 0.229786 7.030397 0.577655 0.946314 21.665658 1.922176 -0.562804 15.607896 -1.289044 -0.294194 -9.345984 -1.223874 0.638500 2.078824 1.311007 -0.614471 -7.542235 -10.516360 -103.614751 -62.328583 149.676053 8.729594 10.780503 3.604302 -10.967314 -2.883420 -1.316343 -8.545496 -18.120797 14.674369 58.783868 -60.923481 -104.633503 -4.384449 0.164445 2.811005 -1.195896 -25.707911 -1.374435 -10.028733 74.000011 -13.517207 10.741481 -7.336019 9.342177 0.002076 -0.000815 0.000920 4.914425 -5.451538 3.745444 144.040686 69.630575 161.191254 -2.704530 -14.985052 -12.533670 0.002592 -0.001596 0.001148
-14.999343 126.902499 12.004948 -173.657562 -47.292395 -4.189104 1.294720 26.394985 2.434390 0.131578 4.449623 0.357755 0.225522 7.062272 0.574559 0.956192 21.645959 1.920455 -0.559742 15.579794 -1.288660 -0.290367 -9.351766 -1.233522 0.635115 2.054418 1.307824 -0.604952 -7.492247 -10.508930 -103.555345 -62.352068 149.620480 8.761507 10.932034 3.684926 -10.947220 -2.896388 -1.295020 -8.552719 -17.980939 14.643749 58.664995 -60.837153 -104.570073 -4.333040 0.103868 2.922887 -1.197848 -25.715643 -1.370905 -10.058903 74.000471 -13.543354 10.689989 -7.337528 9.336540 -0.006810 0.000179 -0.003017 4.915324 -5.454030 3.737861 144.041583 69.629137 161.186294 -2.700453 -14.985360 -12.526706 0.002385 -0.001795 0.001057
-14.998971 126.902565 12.004699 -173.672971 -47.288516 -4.173850 1.297583 26.408977 2.427542 0.134284 4.448915 0.357179 0.227014 7.066999 0.573597 0.957946 21.638218 1.919132 -0.558390 15.581736 -1.300693 -0.280456 -9.360466 -1.257681 0.627941 2.047830 1.303369 -0.594737 -7.441963 -10.496962 -103.487217 -62.376612 149.557807 8.806472 11.088424 3.785601 -10.928728 -2.886589 -1.277855 -8.550275 -17.841529 14.617661 58.531922 -60.743123 -104.504325 -4.285677 0.038409 3.038916 -1.201547 -25.721132 -1.373414 -10.033202 74.003114 -13.521414 10.677052 -7.348252 9.336028 -0.007502 0.000769 -0.003324 4.909963 -5.452592 3.725958 144.032986 69.627129 161.163401 -2.693351 -14.984679 -12.517250 -0.001650 -0.000253 -0.000731
-14.997303 126.902492 12.004651 -173.684402 -47.283445 -4.168399 1.306211 26.416550 2.431872 0.134738 4.444162 0.356004 0.229156 7.079259 0.573269 0.955938 21.630554 1.916197 -0.556845 15.585996 -1.316111 -0.266369 -9.361316 -1.283053 0.617194 2.047074 1.296014 -0.583611 -7.409315 -10.480187 -103.378070 -62.402527 149.456182 8.858928 11.250032 3.903259 -10.910418 -2.869045 -1.258837 -8.539787 -17.701333 14.594533 58.389173 -60.648262 -104.435583 -4.238334 -0.032926 3.155744 -1.210177 -25.726323 -1.377643 -9.988503 74.004079 -13.485631 10.753127 -7.375174 9.339617 0.004425 -0.000914 0.001960 4.912143 -5.456493 3.726369 144.037384 69.625502 161.169169 -2.690884 -14.986160 -12.505130 -0.000326 -0.000565 -0.000145
-14.996766 126.902411 12.004716 -173.695603 -47.279494 -4.155868 1.309663 26.423631 2.426442 0.138655 4.441217 0.356932 0.228540 7.080739 0.572369 0.964130 21.649343 1.914726 -0.550733 15.600021 -1.351808 -0.271468 -9.383936 -1.278681 0.600750 2.043448 1.285810 -0.576526 -7.419278 -10.462758 -103.196625 -62.429032 149.280214 8.915104 11.418262 4.035214 -10.896723 -2.863168 -1.235051 -8.525560 -17.558704 14.573001 58.237415 -60.558574 -104.359914 -4.187685 -0.112017 3.266644 -1.216354 -25.733875 -1.376607 -9.993483 74.012774 -13.486186 10.700519 -7.382416 9.330355 -0.001773 -0.000452 -0.000785 4.918303 -5.459733 3.720360 144.044539 69.627754 161.181957 -2.687444 -14.984268 -12.507550 0.001951 -0.001847 0.000865
-14.996185 126.902358 12.004841 -173.708481 -47.276572 -4.142061 1.312941 26.427621 2.418708 0.136210 4.457592 0.355586 0.234606 7.065841 0.574268 0.968220 21.675402 1.907873 -0.549779 15.586691 -1.366582 -0.264365 -9.379158 -1.299498 0.595509 2.018927 1.288859 -0.577155 -7.373111 -10.444197 -103.099747 -62.454873 149.193375 8.973918 11.592765 4.178434 -10.870836 -2.860477 -1.207434 -8.512801 -17.411208 14.552868 58.083718 -60.475355 -104.281578 -4.137911 -0.195032 3.371208 -1.228991 -25.744213 -1.374997 -9.987239 74.023546 -13.482500 10.652344 -7.382491 9.320030 -0.011661 -0.001771 -0.005166 4.920545 -5.459718 3.716379 144.037599 69.627261 161.173775 -2.690710 -14.986523 -12.510894 0.002746 -0.001487 0.001216
-14.995213 126.902721 12.004647 -173.716674 -47.277304 -4.134047 1.316401 26.430242 2.415172 0.132492 4.462522 0.355660 0.232062 7.081183 0.570103 0.976688 21.657235 1.910058 -0.549141 15.593497 -1.378048 -0.257875 -9.366382 -1.323527 0.588549 2.038410 1.282061 -0.590668 -7.318252 -10.413456 -103.047483 -62.482409 149.168347 9.034796 11.774336 4.331618 -10.834753 -2.827657 -1.190594 -8.506048 -17.259236 14.532964 57.936935 -60.397071 -104.204899 -4.093882 -0.277218 3.469855 -1.233175 -25.747044 -1.377695 -9.986935 74.030458 -13.475615 10.649721 -7.389086 9.306324 -0.011719 -0.001454 -0.005192 4.918477 -5.455582 3.714836 144.037617 69.628971 161.167157 -2.688692 -14.987477 -12.511340 0.000678 -0.000875 0.000300
-14.993735 126.903183 12.004396 -173.730505 -47.279420 -4.124724 1.322163 26.436306 2.414228 0.131151 4.462145 0.356516 0.234410 7.081445 0.568835 0.978671 21.665799 1.905455 -0.547138 15.592594 -1.387242 -0.247437 -9.332506 -1.366689 0.571795 2.079352 1.272327 -0.585780 -7.308789 -10.383116 -102.977043 -62.510964 149.113413 9.097446 11.963391 4.497833 -10.803847 -2.810788 -1.170885 -8.497062 -17.094292 14.517287 57.796898 -60.325396 -104.126212 -4.052382 -0.362119 3.559998 -1.229458 -25.746310 -1.384744 -9.967445 74.029762 -13.460067 10.738774 -7.406093 9.300845 -0.001050 -0.001770 -0.000465 4.919553 -5.450569 3.717698 144.043179 69.631620 161.164870 -2.686478 -14.988287 -12.510424 -0.001134 -0.001000 -0.000502
-14.992733 126.903317 12.004466 -173.745320 -47.279371 -4.111407 1.313921 26.443386 2.411277 0.143919 4.456231 0.349594 0.232218 7.084251 0.568848 0.973482 21.673938 1.901984 -0.541974 15.609266 -1.415908 -0.233754 -9.295712 -1.413785 0.576243 2.081470 1.268689 -0.591008 -7.259695 -10.366925 -102.913140 -62.540977 149.060613 9.162170 12.154208 4.679230 -10.751715 -2.781783 -1.152398 -8.501625 -16.937089 14.499351 57.667008 -60.266080 -104.046104 -4.007289 -0.448752 3.642347 -1.224705 -25.747230 -1.389668 -9.968299 74.029600 -13.461528 10.772143 -7.426228 9.302623 0.002584 -0.003676 0.001145 4.922893 -5.446902 3.714713 144.051833 69.634657 161.171068 -2.682110 -14.993231 -12.517053 -0.001069 -0.002417 -0.000474
-14.990817 126.903623 12.004373 -173.747972 -47.279746 -4.112416 1.314406 26.445956 2.415694 0.138773 4.459176 0.351110 0.232221 7.086116 0.568046 0.972948 21.676275 1.898788 -0.539657 15.631045 -1.446475 -0.225138 -9.266503 -1.448958 0.577075 2.086262 1.262333 -0.588135 -7.218630 -10.355130 -102.831828 -62.572938 148.984929 9.231385 12.342184 4.868879 -10.690277 -2.740914 -1.133743 -8.518116 -16.784965 14.477955 57.554464 -60.223643 -103.969175 -3.957263 -0.534081 3.718802 -1.233611 -25.746040 -1.392782 -9.933384 74.027847 -13.437816 10.858731 -7.441783 9.305665 0.013107 -0.003492 0.005807 4.917727 -5.443905 3.717963 144.058813 69.637184 161.174521 -2.678481 -14.995370 -12.520491 -0.001902 -0.003081 -0.000843
-14.990608 126.903511 12.004664 -173.752457 -47.277614 -4.101607 1.312239 26.446381 2.409190 0.136317 4.466833 0.358765 0.230307 7.089667 0.569128 0.966758 21.679048 1.895534 -0.539890 15.647337 -1.486447 -0.217062 -9.231370 -1.483166 0.573969 2.095704 1.249660 -0.577492 -7.185437 -10.344988 -102.755796 -62.604703 148.917437 9.304997 12.529415 5.061890 -10.638422 -2.720209 -1.126699 -8.522637 -16.615154 14.460943 57.456766 -60.194400 -103.899749 -3.906365 -0.621089 3.791186 -1.245825 -25.752710 -1.397024 -9.916427 74.033238 -13.432030 10.850683 -7.444588 9.304770 0.010209 -0.004760 0.004523 4.912279 -5.438395 3.712212 144.067916 69.644092 161.173987 -2.672496 -15.001940 -12.520232 -0.000821 -0.000762 -0.000364
-14.991620 126.903113 12.005283 -173.758164 -47.273362 -4.082673 1.306170 26.452878 2.406163 0.136419 4.464198 0.353189 0.230083 7.089685 0.567298 0.965943 21.681180 1.895200 -0.543156 15.717321 -1.544639 -0.217960 -9.234913 -1.489175 0.577659 2.111478 1.246926 -0.574413 -7.149476 -10.338474 -102.690488 -62.635510 148.859342 9.380781 12.717557 5.259650 -10.595768 -2.691381 -1.116284 -8.518716 -16.439856 14.445176 57.367784 -60.169222 -103.841615 -3.860648 -0.707779 3.860701 -1.242815 -25.760537 -1.402124 -9.958262 74.038042 -13.468046 10.760780 -7.438435 9.297379 0.000305 -0.003651 0.000135 4.914587 -5.438586 3.698346 144.063828 69.647276 161.168552 -2.674128 -15.005505 -12.520820 0.002072 -0.000412 0.000918
-14.991025 126.903382 12.005317 -173.759962 -47.273702 -4.077029 1.304539 26.455897 2.404552 0.136408 4.466701 0.355150 0.231070 7.093546 0.568821 0.966500 21.683694 1.895944 -0.546404 15.751171 -1.573991 -0.214793 -9.198500 -1.519391 0.585819 2.123530 1.237327 -0.573082 -7.108265 -10.325812 -102.633247 -62.664808 148.803753 9.459878 12.902107 5.464895 -10.558431 -2.660827 -1.104363 -8.508448 -16.263050 14.426898 57.282526 -60.143333 -103.790060 -3.822516 -0.789746 3.923501 -1.244591 -25.762943 -1.400409 -9.948251 74.044504 -13.457814 10.711536 -7.434838 9.292052 -0.002420 -0.003860 -0.001072 4.913330 -5.435050 3.695358 144.064845 69.649947 161.164327 -2.671855 -15.006802 -12.518472 0.001010 0.000077 0.000447
